<svg width="255" height="58" viewBox="0 0 255 58" fill="none" xmlns="http://www.w3.org/2000/svg">
<path d="M57.7709 27.6639C57.7709 28.7092 57.5189 29.6892 57.0149 30.6039C56.5296 31.5186 55.7549 32.2559 54.6909 32.8159C53.6456 33.3759 52.3202 33.6559 50.7149 33.6559H47.4389V41.1599H43.5189V21.6159H50.7149C52.2269 21.6159 53.5149 21.8772 54.5789 22.3999C55.6429 22.9226 56.4362 23.6412 56.9589 24.5559C57.5002 25.4706 57.7709 26.5066 57.7709 27.6639ZM50.5469 30.4919C51.6296 30.4919 52.4322 30.2492 52.9549 29.7639C53.4776 29.2599 53.7389 28.5599 53.7389 27.6639C53.7389 25.7599 52.6749 24.8079 50.5469 24.8079H47.4389V30.4919H50.5469ZM62.5421 23.7999C61.8514 23.7999 61.2727 23.5852 60.8061 23.1559C60.3581 22.7079 60.1341 22.1572 60.1341 21.5039C60.1341 20.8506 60.3581 20.3092 60.8061 19.8799C61.2727 19.4319 61.8514 19.2079 62.5421 19.2079C63.2327 19.2079 63.8021 19.4319 64.2501 19.8799C64.7167 20.3092 64.9501 20.8506 64.9501 21.5039C64.9501 22.1572 64.7167 22.7079 64.2501 23.1559C63.8021 23.5852 63.2327 23.7999 62.5421 23.7999ZM64.4741 25.6479V41.1599H60.5541V25.6479H64.4741ZM77.531 41.1599L72.267 34.5519V41.1599H68.347V20.4399H72.267V32.2279L77.475 25.6479H82.571L75.739 33.4319L82.627 41.1599H77.531ZM93.8826 41.1599L88.6186 34.5519V41.1599H84.6986V20.4399H88.6186V32.2279L93.8266 25.6479H98.9226L92.0906 33.4319L98.9786 41.1599H93.8826ZM107.938 41.4119C106.445 41.4119 105.101 41.0852 103.906 40.4319C102.711 39.7599 101.769 38.8172 101.078 37.6039C100.406 36.3906 100.07 34.9906 100.07 33.4039C100.07 31.8172 100.415 30.4172 101.106 29.2039C101.815 27.9906 102.777 27.0572 103.99 26.4039C105.203 25.7319 106.557 25.3959 108.05 25.3959C109.543 25.3959 110.897 25.7319 112.11 26.4039C113.323 27.0572 114.275 27.9906 114.966 29.2039C115.675 30.4172 116.03 31.8172 116.03 33.4039C116.03 34.9906 115.666 36.3906 114.938 37.6039C114.229 38.8172 113.258 39.7599 112.026 40.4319C110.813 41.0852 109.45 41.4119 107.938 41.4119ZM107.938 37.9959C108.647 37.9959 109.31 37.8279 109.926 37.4919C110.561 37.1372 111.065 36.6146 111.438 35.9239C111.811 35.2332 111.998 34.3932 111.998 33.4039C111.998 31.9292 111.606 30.7999 110.822 30.0159C110.057 29.2132 109.114 28.8119 107.994 28.8119C106.874 28.8119 105.931 29.2132 105.166 30.0159C104.419 30.7999 104.046 31.9292 104.046 33.4039C104.046 34.8786 104.41 36.0172 105.138 36.8199C105.885 37.6039 106.818 37.9959 107.938 37.9959Z" fill="white"/>
<path d="M133.158 27.6639C133.158 28.7092 132.906 29.6892 132.402 30.6039C131.916 31.5186 131.142 32.2559 130.078 32.8159C129.032 33.3759 127.707 33.6559 126.102 33.6559H122.826V41.1599H118.906V21.6159H126.102C127.614 21.6159 128.902 21.8772 129.966 22.3999C131.03 22.9226 131.823 23.6412 132.346 24.5559C132.887 25.4706 133.158 26.5066 133.158 27.6639ZM125.934 30.4919C127.016 30.4919 127.819 30.2492 128.342 29.7639C128.864 29.2599 129.126 28.5599 129.126 27.6639C129.126 25.7599 128.062 24.8079 125.934 24.8079H122.826V30.4919H125.934ZM134.933 33.3479C134.933 31.7799 135.241 30.3892 135.857 29.1759C136.491 27.9626 137.341 27.0292 138.405 26.3759C139.487 25.7226 140.691 25.3959 142.017 25.3959C143.174 25.3959 144.182 25.6292 145.041 26.0959C145.918 26.5626 146.618 27.1506 147.141 27.8599V25.6479H151.089V41.1599H147.141V38.8919C146.637 39.6199 145.937 40.2266 145.041 40.7119C144.163 41.1786 143.146 41.4119 141.989 41.4119C140.682 41.4119 139.487 41.0759 138.405 40.4039C137.341 39.7319 136.491 38.7892 135.857 37.5759C135.241 36.3439 134.933 34.9346 134.933 33.3479ZM147.141 33.4039C147.141 32.4519 146.954 31.6399 146.581 30.9679C146.207 30.2772 145.703 29.7546 145.069 29.3999C144.434 29.0266 143.753 28.8399 143.025 28.8399C142.297 28.8399 141.625 29.0172 141.009 29.3719C140.393 29.7266 139.889 30.2492 139.497 30.9399C139.123 31.6119 138.937 32.4146 138.937 33.3479C138.937 34.2812 139.123 35.1026 139.497 35.8119C139.889 36.5026 140.393 37.0346 141.009 37.4079C141.643 37.7812 142.315 37.9679 143.025 37.9679C143.753 37.9679 144.434 37.7906 145.069 37.4359C145.703 37.0626 146.207 36.5399 146.581 35.8679C146.954 35.1772 147.141 34.3559 147.141 33.4039ZM169.757 25.6479L160.153 48.4959H155.981L159.341 40.7679L153.125 25.6479H157.521L161.525 36.4839L165.585 25.6479H169.757Z" fill="#FFF0AF"/>
<path d="M1.93908 12.3298C1.93908 12.3298 12.7228 11.5909 12.7962 23.1852C1.20148 23.1116 1.93908 12.3298 1.93908 12.3298Z" fill="#71B261"/>
<mask id="mask0_2293_2831" style="mask-type:luminance" maskUnits="userSpaceOnUse" x="1" y="11" width="13" height="13">
<path d="M1.27441 11.3918H13.6635V23.9122H1.27441V11.3918Z" fill="white"/>
</mask>
<g mask="url(#mask0_2293_2831)">
<path d="M13.4278 23.8154L12.7937 23.812C9.05391 23.787 6.14522 22.6854 4.14768 20.5323C1.02037 17.164 1.3024 12.4835 1.31575 12.2863L1.35246 11.743L1.89816 11.7046C1.89816 11.7046 2.05168 11.6929 2.32203 11.6929C4.16437 11.6929 13.3544 12.2478 13.4245 23.1802L13.4278 23.8154Z" fill="url(#paint0_linear_2293_2831)"/>
</g>
<mask id="mask1_2293_2831" style="mask-type:luminance" maskUnits="userSpaceOnUse" x="10" y="0" width="10" height="18">
<path d="M10.2441 0H19.2155V17.3831H10.2441V0Z" fill="white"/>
</mask>
<g mask="url(#mask1_2293_2831)">
<path d="M14.7831 17.1641L14.3375 16.7128C11.7092 14.0516 10.4326 11.2149 10.5427 8.28121C10.7146 3.68763 14.2224 0.578442 14.3726 0.449728L14.7831 0.090332L15.1953 0.449728C15.3455 0.578442 18.8532 3.68763 19.0251 8.28121C19.1353 11.2149 17.8587 14.0516 15.2303 16.7128L14.7831 17.1641Z" fill="url(#paint1_linear_2293_2831)"/>
</g>
<path d="M27.9323 12.3298C27.9323 12.3298 17.1503 11.5909 17.0752 23.1852C28.6716 23.1116 27.9323 12.3298 27.9323 12.3298Z" fill="#71B261"/>
<mask id="mask2_2293_2831" style="mask-type:luminance" maskUnits="userSpaceOnUse" x="16" y="11" width="13" height="13">
<path d="M16.2256 11.3916H28.6147V23.9119H16.2256V11.3916Z" fill="white"/>
</mask>
<g mask="url(#mask2_2293_2831)">
<path d="M16.4443 23.8154L16.4493 23.1802C16.5194 12.2478 25.7094 11.6929 27.5501 11.6929C27.8221 11.6929 27.9756 11.7046 27.9756 11.7046L28.5197 11.743L28.5581 12.2863C28.5714 12.4835 28.8534 17.1624 25.7261 20.5323C23.7303 22.6854 20.8199 23.787 17.0785 23.812L16.4443 23.8154Z" fill="url(#paint2_linear_2293_2831)"/>
</g>
<mask id="mask3_2293_2831" style="mask-type:luminance" maskUnits="userSpaceOnUse" x="0" y="18" width="30" height="34">
<path d="M0.417969 18.511H29.4682V52H0.417969V18.511Z" fill="white"/>
</mask>
<g mask="url(#mask3_2293_2831)">
<mask id="mask4_2293_2831" style="mask-type:luminance" maskUnits="userSpaceOnUse" x="0" y="18" width="30" height="34">
<path d="M20.1544 52V18.5377C20.056 18.531 19.9592 18.531 19.8607 18.531H10.0349V52H20.1544ZM7.5167 52H10.0349V18.5377H9.97983C5.90799 18.5377 2.33345 21.8659 2.03974 25.9295L0.662995 44.6165C0.360945 48.6718 3.44653 52 7.5167 52ZM22.3222 52C26.394 52 29.4779 48.6718 29.1775 44.6081L27.7991 25.9229C27.5054 21.9578 24.0928 18.6932 20.1477 18.5377V52H22.3222Z" fill="white"/>
</mask>
<g mask="url(#mask4_2293_2831)">
<path d="M29.1974 51.9997H0.661133V18.5107H29.1974V51.9997Z" fill="#FFDE59"/>
</g>
</g>
<mask id="mask5_2293_2831" style="mask-type:luminance" maskUnits="userSpaceOnUse" x="0" y="17" width="14" height="14">
<path d="M0 17.6624H13.0065V30.6909H0V17.6624Z" fill="white"/>
</mask>
<g mask="url(#mask5_2293_2831)">
<mask id="mask6_2293_2831" style="mask-type:luminance" maskUnits="userSpaceOnUse" x="0" y="17" width="14" height="14">
<path d="M6.50326 17.6626C2.91203 17.6626 0 20.5779 0 24.1769C0 27.7742 2.91203 30.6911 6.50326 30.6911C10.0945 30.6911 13.0065 27.7742 13.0065 24.1769C13.0065 20.5779 10.0945 17.6626 6.50326 17.6626Z" fill="white"/>
</mask>
<g mask="url(#mask6_2293_2831)">
<path d="M0 17.6626H13.0065V30.6911H0V17.6626Z" fill="white"/>
</g>
</g>
<mask id="mask7_2293_2831" style="mask-type:luminance" maskUnits="userSpaceOnUse" x="2" y="20" width="9" height="9">
<path d="M2.44824 20.1128H10.5585V28.2385H2.44824V20.1128Z" fill="white"/>
</mask>
<g mask="url(#mask7_2293_2831)">
<mask id="mask8_2293_2831" style="mask-type:luminance" maskUnits="userSpaceOnUse" x="2" y="20" width="9" height="9">
<path d="M6.50339 20.113C4.26388 20.113 2.44824 21.9317 2.44824 24.1767C2.44824 26.42 4.26388 28.2387 6.50339 28.2387C8.7429 28.2387 10.5585 26.42 10.5585 24.1767C10.5585 21.9317 8.7429 20.113 6.50339 20.113Z" fill="white"/>
</mask>
<g mask="url(#mask8_2293_2831)">
<path d="M2.44824 20.113H10.5585V28.2387H2.44824V20.113Z" fill="#3D1F1E"/>
</g>
</g>
<mask id="mask9_2293_2831" style="mask-type:luminance" maskUnits="userSpaceOnUse" x="6" y="21" width="4" height="4">
<path d="M6.0498 21.5034H9.1721V24.631H6.0498V21.5034Z" fill="white"/>
</mask>
<g mask="url(#mask9_2293_2831)">
<mask id="mask10_2293_2831" style="mask-type:luminance" maskUnits="userSpaceOnUse" x="6" y="21" width="4" height="4">
<path d="M7.61179 21.5042C6.74903 21.5042 6.0498 22.2046 6.0498 23.0671C6.0498 23.9313 6.74903 24.6317 7.61179 24.6317C8.47288 24.6317 9.1721 23.9313 9.1721 23.0671C9.1721 22.2046 8.47288 21.5042 7.61179 21.5042Z" fill="white"/>
</mask>
<g mask="url(#mask10_2293_2831)">
<path d="M6.0498 21.5042H9.1721V24.6317H6.0498V21.5042Z" fill="white"/>
</g>
</g>
<mask id="mask11_2293_2831" style="mask-type:luminance" maskUnits="userSpaceOnUse" x="10" y="34" width="10" height="12">
<path d="M10.374 34.7107H19.5757V45.1716H10.374V34.7107Z" fill="white"/>
</mask>
<g mask="url(#mask11_2293_2831)">
<path d="M14.9747 47.9116C14.6727 47.9116 14.374 47.8698 14.0786 47.7846C13.7816 47.701 13.4945 47.5756 13.2158 47.4101C12.9372 47.243 12.6718 47.0407 12.4215 46.8C12.1695 46.5593 11.9376 46.2852 11.7239 45.9793C11.5103 45.6717 11.3201 45.339 11.1532 44.978C10.9847 44.6186 10.8428 44.2374 10.7277 43.8362C10.6125 43.4367 10.5258 43.0238 10.4657 42.5993C10.4073 42.173 10.3789 41.7451 10.3789 41.3104C10.3789 40.8775 10.4073 40.4479 10.4657 40.0233C10.5258 39.5987 10.6125 39.1858 10.7277 38.7846C10.8428 38.3851 10.9847 38.004 11.1532 37.6446C11.3201 37.2835 11.5103 36.9509 11.7239 36.6433C11.9376 36.3374 12.1695 36.0633 12.4215 35.8226C12.6718 35.5818 12.9372 35.3796 13.2158 35.2124C13.4945 35.0469 13.7816 34.9216 14.0786 34.838C14.374 34.7527 14.6727 34.7109 14.9747 34.7109C15.2768 34.7109 15.5755 34.7527 15.8709 34.838C16.1679 34.9216 16.455 35.0469 16.7336 35.2124C17.0123 35.3796 17.2777 35.5818 17.528 35.8226C17.78 36.0633 18.0119 36.3374 18.2255 36.6433C18.4391 36.9509 18.6294 37.2835 18.7963 37.6446C18.9648 38.004 19.1067 38.3851 19.2218 38.7846C19.3369 39.1858 19.4237 39.5987 19.4838 40.0233C19.5422 40.4479 19.5706 40.8775 19.5706 41.3104C19.5706 41.7451 19.5422 42.173 19.4838 42.5993C19.4237 43.0238 19.3369 43.4367 19.2218 43.8362C19.1067 44.2374 18.9648 44.6186 18.7963 44.978C18.6294 45.339 18.4391 45.6717 18.2255 45.9793C18.0119 46.2852 17.78 46.5593 17.528 46.8C17.2777 47.0407 17.0123 47.243 16.7336 47.4101C16.455 47.5756 16.1679 47.701 15.8709 47.7846C15.5755 47.8698 15.2768 47.9116 14.9747 47.9116Z" fill="#3D1F1E"/>
</g>
<mask id="mask12_2293_2831" style="mask-type:luminance" maskUnits="userSpaceOnUse" x="10" y="41" width="9" height="7">
<path d="M10.8994 41.6765H18.8562V47.4051H10.8994V41.6765Z" fill="white"/>
</mask>
<g mask="url(#mask12_2293_2831)">
<path d="M18.8562 44.5417C18.8562 44.7289 18.8295 44.9145 18.7794 45.1C18.7277 45.2839 18.6526 45.4627 18.5525 45.6366C18.4523 45.8104 18.3305 45.9743 18.1853 46.1314C18.0401 46.2868 17.8749 46.4323 17.6897 46.5643C17.5061 46.6981 17.3042 46.8167 17.0873 46.9204C16.8703 47.0257 16.6417 47.1126 16.3997 47.1845C16.1578 47.2564 15.9091 47.3115 15.6538 47.3483C15.3968 47.3851 15.1381 47.4035 14.8778 47.4035C14.6158 47.4035 14.3571 47.3851 14.1018 47.3483C13.8448 47.3115 13.5962 47.2564 13.3542 47.1845C13.1139 47.1126 12.8836 47.0257 12.6667 46.9204C12.4497 46.8167 12.2478 46.6981 12.0642 46.5643C11.879 46.4323 11.7138 46.2868 11.5686 46.1314C11.4234 45.9743 11.3016 45.8104 11.2015 45.6366C11.1013 45.4627 11.0262 45.2839 10.9745 45.1C10.9244 44.9145 10.8994 44.7289 10.8994 44.5417C10.8994 44.3528 10.9244 44.1672 10.9745 43.9817C11.0262 43.7978 11.1013 43.619 11.2015 43.4451C11.3016 43.2713 11.4234 43.1074 11.5686 42.9503C11.7138 42.7949 11.879 42.6494 12.0642 42.5174C12.2478 42.3836 12.4497 42.265 12.6667 42.1613C12.8836 42.056 13.1139 41.9691 13.3542 41.8972C13.5962 41.8253 13.8448 41.7702 14.1018 41.7334C14.3571 41.6966 14.6158 41.6782 14.8778 41.6782C15.1381 41.6782 15.3968 41.6966 15.6538 41.7334C15.9091 41.7702 16.1578 41.8253 16.3997 41.8972C16.6417 41.9691 16.8703 42.056 17.0873 42.1613C17.3042 42.265 17.5061 42.3836 17.6897 42.5174C17.8749 42.6494 18.0401 42.7949 18.1853 42.9503C18.3305 43.1074 18.4523 43.2713 18.5525 43.4451C18.6526 43.619 18.7277 43.7978 18.7794 43.9817C18.8295 44.1672 18.8562 44.3528 18.8562 44.5417Z" fill="#FA5B5B"/>
</g>
<mask id="mask13_2293_2831" style="mask-type:luminance" maskUnits="userSpaceOnUse" x="16" y="17" width="14" height="14">
<path d="M16.8398 17.6624H29.8464V30.6909H16.8398V17.6624Z" fill="white"/>
</mask>
<g mask="url(#mask13_2293_2831)">
<mask id="mask14_2293_2831" style="mask-type:luminance" maskUnits="userSpaceOnUse" x="16" y="17" width="14" height="14">
<path d="M23.3421 17.6628C19.7492 17.6628 16.8389 20.5781 16.8389 24.1771C16.8389 27.7744 19.7492 30.6914 23.3421 30.6914C26.9334 30.6914 29.8454 27.7744 29.8454 24.1771C29.8454 20.5781 26.9334 17.6628 23.3421 17.6628Z" fill="white"/>
</mask>
<g mask="url(#mask14_2293_2831)">
<path d="M16.8389 17.6628H29.8454V30.6914H16.8389V17.6628Z" fill="white"/>
</g>
</g>
<mask id="mask15_2293_2831" style="mask-type:luminance" maskUnits="userSpaceOnUse" x="19" y="20" width="9" height="9">
<path d="M19.2861 20.1128H27.3981V28.2385H19.2861V20.1128Z" fill="white"/>
</mask>
<g mask="url(#mask15_2293_2831)">
<mask id="mask16_2293_2831" style="mask-type:luminance" maskUnits="userSpaceOnUse" x="19" y="20" width="9" height="9">
<path d="M23.343 20.113C21.1018 20.113 19.2861 21.9317 19.2861 24.1767C19.2861 26.42 21.1018 28.2387 23.343 28.2387C25.5825 28.2387 27.3981 26.42 27.3981 24.1767C27.3981 21.9317 25.5825 20.113 23.343 20.113Z" fill="white"/>
</mask>
<g mask="url(#mask16_2293_2831)">
<path d="M19.2861 20.113H27.3981V28.2387H19.2861V20.113Z" fill="#3D1F1E"/>
</g>
</g>
<mask id="mask17_2293_2831" style="mask-type:luminance" maskUnits="userSpaceOnUse" x="23" y="21" width="4" height="4">
<path d="M23.0205 21.5037H26.1428V24.6312H23.0205V21.5037Z" fill="white"/>
</mask>
<g mask="url(#mask17_2293_2831)">
<mask id="mask18_2293_2831" style="mask-type:luminance" maskUnits="userSpaceOnUse" x="23" y="21" width="4" height="4">
<path d="M24.5798 21.5039C23.7171 21.5039 23.0195 22.2043 23.0195 23.0669C23.0195 23.9311 23.7171 24.6315 24.5798 24.6315C25.4426 24.6315 26.1418 23.9311 26.1418 23.0669C26.1418 22.2043 25.4426 21.5039 24.5798 21.5039Z" fill="white"/>
</mask>
<g mask="url(#mask18_2293_2831)">
<path d="M23.0195 21.5039H26.1418V24.6315H23.0195V21.5039Z" fill="white"/>
</g>
</g>
<defs>
<linearGradient id="paint0_linear_2293_2831" x1="7.36575" y1="11.6929" x2="7.36575" y2="23.8154" gradientUnits="userSpaceOnUse">
<stop stop-color="#EEF6A6"/>
<stop offset="0.0001" stop-color="#C4EEB9"/>
<stop offset="0.59375" stop-color="#45AB9B"/>
</linearGradient>
<linearGradient id="paint1_linear_2293_2831" x1="14.7839" y1="0.090332" x2="14.7839" y2="17.1641" gradientUnits="userSpaceOnUse">
<stop stop-color="#EEF6A6"/>
<stop offset="0.0001" stop-color="#C4EEB9"/>
<stop offset="0.59375" stop-color="#45AB9B"/>
</linearGradient>
<linearGradient id="paint2_linear_2293_2831" x1="22.5072" y1="11.6929" x2="22.5072" y2="23.8154" gradientUnits="userSpaceOnUse">
<stop stop-color="#EEF6A6"/>
<stop offset="0.0001" stop-color="#C4EEB9"/>
<stop offset="0.59375" stop-color="#45AB9B"/>
</linearGradient>
</defs>
</svg>
